<svg width="22" height="18" viewBox="0 0 22 18" fill="none" xmlns="http://www.w3.org/2000/svg">
<g clip-path="url(#clip0_1136_2029)">
<path d="M20.0199 0.269953L12.5199 7.76995V0.929953C12.5199 0.0999528 11.5199 -0.320047 10.9299 0.269953L3.18992 8.00995C3.00992 8.18995 2.91992 8.42995 2.91992 8.66995C2.91992 8.90995 3.00992 9.14995 3.18992 9.32995L10.9299 17.07C11.5199 17.66 12.5199 17.24 12.5199 16.41V9.56995L20.0199 17.07C20.6099 17.66 21.6099 17.24 21.6099 16.41V0.929953C21.6099 0.0999528 20.6099 -0.320047 20.0199 0.269953Z" fill="black"/>
<path d="M0 0V17.35H2.91V8.67V0H0Z" fill="black"/>
</g>
<defs>
<clipPath id="clip0_1136_2029">
<rect width="21.61" height="17.35" fill="white"/>
</clipPath>
</defs>
</svg>
