<svg width="22" height="18" viewBox="0 0 22 18" fill="none" xmlns="http://www.w3.org/2000/svg">
<g clip-path="url(#clip0_1136_2045)">
<path d="M10.68 0.269953C10.09 -0.320047 9.09 0.0999528 9.09 0.929953V7.76995L1.59 0.269953C1 -0.310047 0 0.0999528 0 0.929953V16.41C0 17.24 1 17.66 1.59 17.07L9.09 9.56995V16.41C9.09 17.24 10.09 17.66 10.68 17.07L18.42 9.32995C18.6 9.14995 18.69 8.90995 18.69 8.66995C18.69 8.42995 18.6 8.18995 18.42 8.00995L10.68 0.269953Z" fill="black"/>
<path d="M18.6895 0V8.67V17.35H21.6095V0H18.6895Z" fill="black"/>
</g>
<defs>
<clipPath id="clip0_1136_2045">
<rect width="21.61" height="17.35" fill="white"/>
</clipPath>
</defs>
</svg>
